<svg width="117" height="45" viewBox="0 0 117 45" fill="none" xmlns="http://www.w3.org/2000/svg">
<path d="M26.256 21.6493C28.798 19.6033 30.348 16.6893 30.348 12.9693C30.348 5.71527 24.458 0.75527 17.142 0.75527H0.0300003V44.1553H18.444C25.946 44.1553 31.96 39.0093 31.96 31.5693C31.96 27.0433 29.728 23.6333 26.256 21.6493ZM17.142 8.75327C19.87 8.75327 21.792 10.7993 21.792 13.5273C21.792 16.2553 19.808 18.3013 17.142 18.3013H8.586V8.75327H17.142ZM18.444 36.1573H8.586V25.9273H18.444C21.358 25.9273 23.466 28.0973 23.466 31.0113C23.466 33.9873 21.358 36.1573 18.444 36.1573ZM82.8649 0.75527H50.9349V8.93927H62.5909V44.1553H71.1469V8.93927H82.8649V0.75527ZM104.505 12.2873C100.351 12.2873 97.1273 13.8373 95.2673 16.6273V0.75527H87.2693V44.1553H95.2673V27.4153C95.2673 22.0213 98.1813 19.7273 102.087 19.7273C105.683 19.7273 108.225 21.8973 108.225 26.1133V44.1553H116.223V25.1213C116.223 16.8753 111.077 12.2873 104.505 12.2873Z" fill="#236E57"/>
<path d="M41.8471 44.9613C44.7611 44.9613 47.1171 42.6053 47.1171 39.6913C47.1171 36.7773 44.7611 34.4213 41.8471 34.4213C38.9331 34.4213 36.5771 36.7773 36.5771 39.6913C36.5771 42.6053 38.9331 44.9613 41.8471 44.9613Z" fill="#F05830"/>
</svg>
